<svg xmlns="http://www.w3.org/2000/svg" xmlns:xlink="http://www.w3.org/1999/xlink" width="532" height="532" viewBox="0 0 532 532"><defs><style>.a{opacity:0.1;fill:url(#a);}.b,.c,.x{fill:none;stroke:#29abe2;}.b{stroke-miterlimit:10;}.b,.c{stroke-width:1.5px;}.c{stroke-linecap:round;stroke-linejoin:round;}.d,.e,.f,.g,.h,.i,.j,.k,.l,.m,.n,.o,.p,.q,.r,.s,.t,.u,.v{opacity:0.5;}.d{fill:url(#b);}.e{fill:url(#d);}.f{fill:url(#e);}.g{fill:url(#f);}.h{fill:url(#h);}.i{fill:url(#k);}.j{fill:url(#l);}.k{fill:url(#m);}.l{fill:url(#n);}.m{fill:url(#p);}.n{fill:url(#q);}.o{fill:url(#s);}.p{fill:url(#t);}.q{fill:url(#v);}.r{fill:url(#w);}.s{fill:url(#x);}.t{fill:url(#y);}.u{fill:url(#z);}.v{fill:url(#aa);}.w{fill:#29abe2;}</style><radialGradient id="a" cx="0.5" cy="0.5" r="0.5" gradientUnits="objectBoundingBox"><stop offset="0" stop-color="#fff"/><stop offset="1" stop-color="#fff" stop-opacity="0"/></radialGradient><radialGradient id="b" cx="15.429" cy="15.429" r="15.429" gradientUnits="userSpaceOnUse"><stop offset="0" stop-color="#fff"/><stop offset="0.188" stop-color="#bfbfbf" stop-opacity="0.749"/><stop offset="0.408" stop-color="#7c7c7c" stop-opacity="0.486"/><stop offset="0.607" stop-color="#464646" stop-opacity="0.278"/><stop offset="0.778" stop-color="#202020" stop-opacity="0.125"/><stop offset="0.915" stop-color="#080808" stop-opacity="0.035"/><stop offset="1" stop-opacity="0"/></radialGradient><radialGradient id="d" cx="15.429" cy="15.429" r="15.429" gradientTransform="matrix(-1, 0, 0, 1, 30.857, 0)" gradientUnits="userSpaceOnUse"><stop offset="0" stop-color="#fff"/><stop offset="0.188" stop-color="#9fa4d4" stop-opacity="0.749"/><stop offset="0.408" stop-color="#7780b8" stop-opacity="0.486"/><stop offset="0.607" stop-color="#3d4d77" stop-opacity="0.278"/><stop offset="0.778" stop-color="#273554" stop-opacity="0.125"/><stop offset="0.915" stop-color="#212f5d" stop-opacity="0.035"/><stop offset="1" stop-opacity="0"/></radialGradient><radialGradient id="e" cx="15.429" cy="15.429" r="15.429" xlink:href="#d"/><radialGradient id="f" cx="15.429" cy="15.429" r="15.429" xlink:href="#d"/><radialGradient id="h" cx="15.429" cy="15.429" r="15.429" xlink:href="#d"/><radialGradient id="k" cx="15.429" cy="15.429" r="15.429" xlink:href="#d"/><radialGradient id="l" cx="15.429" cy="15.429" r="15.429" xlink:href="#d"/><radialGradient id="m" cx="15.429" cy="15.429" r="15.429" xlink:href="#d"/><radialGradient id="n" cx="15.429" cy="15.429" r="15.429" xlink:href="#d"/><radialGradient id="p" cx="15.429" cy="15.429" r="15.429" xlink:href="#d"/><radialGradient id="q" cx="15.429" cy="15.429" r="15.429" xlink:href="#d"/><radialGradient id="s" cx="15.429" cy="15.429" r="15.429" xlink:href="#d"/><radialGradient id="t" cx="15.429" cy="15.429" r="15.429" xlink:href="#d"/><radialGradient id="v" cx="15.429" cy="15.429" r="15.429" xlink:href="#d"/><radialGradient id="w" cx="15.429" cy="15.429" r="15.429" xlink:href="#d"/><radialGradient id="x" cx="15.429" cy="15.429" r="15.429" xlink:href="#d"/><radialGradient id="y" cx="15.429" cy="15.429" r="15.429" xlink:href="#d"/><radialGradient id="z" cx="15.429" cy="15.429" r="15.429" xlink:href="#d"/><radialGradient id="aa" cx="15.429" cy="15.429" r="15.429" xlink:href="#d"/></defs><g transform="translate(-829 -191)"><circle class="a" cx="266" cy="266" r="266" transform="translate(829 191)"/><g transform="translate(364.535 -107.747)"><g transform="translate(588.729 360)"><g transform="translate(0 0)"><path class="b" d="M385.572,153.1C377.038,51.568,274.617,49.787,274.617,49.787H243.991S141.572,51.568,133.037,153.1a167.618,167.618,0,0,0,3.693,49.884,124.494,124.494,0,0,1,2.481,15.951c2.853,33.264,8.53,105.869,17.7,125.648,42.52,91.733,93.718,89.507,93.718,89.507h17.356s51.2,2.226,93.718-89.507c9.168-19.78,14.845-92.384,17.7-125.648a124.12,124.12,0,0,1,2.481-15.951A167.617,167.617,0,0,0,385.572,153.1Z" transform="translate(-117.649 -49.787)"/><g transform="translate(17.57 304.375)"><path class="b" d="M161.292,332.226s.005,50.982-2.221,64.342-24.047,40.522-24.047,40.522" transform="translate(-135.024 -332.226)"/><path class="b" d="M340.934,332.226s-.005,50.982,2.221,64.342S367.2,437.091,367.2,437.091" transform="translate(-119.031 -332.226)"/></g><g transform="translate(0 167.02)"><path class="b" d="M140.671,211.46c-2.3-2.971-5.606-5.854-10.063-6.59-8.244-1.361-16.046,11-9.367,40.839,6.507,29.064,6.262,47.978,28.061,48.526C145.335,266.993,142.5,233.053,140.671,211.46Z" transform="translate(-118.72 -204.769)"/><path class="b" d="M371.929,204.87c-4.456.736-7.761,3.619-10.062,6.59-1.834,21.592-4.665,55.533-8.632,82.776,21.8-.549,21.554-19.463,28.061-48.526C387.976,215.874,380.173,203.509,371.929,204.87Z" transform="translate(-100.506 -204.769)"/></g></g><g transform="translate(1.149 0)"><line class="c" y2="94.093" transform="translate(140.506 315.147)"/><line class="c" y2="91.062" transform="translate(140.506 169.666)"/><line class="c" y2="47.046" transform="translate(140.506 0.431)"/><line class="c" x2="96.187" transform="translate(92.413 299.025)"/><path class="c" d="M230.019,220.888l-17.808,6.786H194.176l-17.153-8.791,16.7-9.806h18.7l.547.361v.013Z" transform="translate(-115.341 -37.416)"/><path class="c" d="M232.344,220.032l10.465,22.488L147.1,293.05l49.4-66.231" transform="translate(-117.666 -36.565)"/><line class="c" x2="12.469" y2="29.836" transform="translate(65.917 141.831)"/><path class="c" d="M179.974,221.029l-40.885-7.754L184.2,181.4l46.758,4.9,13.582,17.367-1.113,41.859-17.59,38.742v9.8l19.594,9.908v23.045" transform="translate(-118.288 -39.566)"/><path class="c" d="M239.463,284.386H227.44l6.012-4.23,18.48,12.469" transform="translate(-111.426 -31.895)"/><path class="c" d="M253.681,319.859l-13.36-3.34-35.4,11.577,34.512,14.918s15.14,1.558,14.25,1.558" transform="translate(-113.175 -29.071)"/><path class="c" d="M222.733,276.85s-22.266,24.714-22.934,24.714S179.1,371.133,179.1,371.133L241.436,346.1" transform="translate(-115.18 -32.152)"/><line class="c" x2="13.359" y2="3.34" transform="translate(127.147 264.403)"/><path class="c" d="M257.169,218.016l-14.288-5.566,14.25-30.615-24.492-49.763L178.311,68.255,229.3,195.082l3.341-63.011s24.492-35.737,24.53-35.737-78.858-28.08-78.858-28.08L160.5,134.161" transform="translate(-116.625 -48.353)"/><path class="c" d="M184.492,185.434l22.266-56.023H135.384Z" transform="translate(-118.575 -43.603)"/><line class="c" x1="39.391" y2="33.937" transform="translate(101.115)"/><path class="c" d="M212.8,213.9a10.273,10.273,0,0,1-20.546,0,10.16,10.16,0,0,1,1.2-4.823h17.782l.547.361v.013A10.168,10.168,0,0,1,212.8,213.9Z" transform="translate(-114.158 -37.416)"/><path class="c" d="M205.281,435.6l-48.369-38.5c-1.474.54,23.921-31.757,23.921-31.757L205.281,435.6l52.171-24.937-41.9-59.268" transform="translate(-116.908 -26.362)"/><line class="c" x2="7.21" y2="38.502" transform="translate(40.004 370.738)"/><line class="c" x1="21.526" y1="6.77" transform="translate(42.4 332.212)"/><path class="c" d="M119.787,214.532l6.913-1.111,16.563,27.845L133.5,254.389l12.653,15.181" transform="translate(-119.787 -37.078)"/><line class="c" x1="3.694" y2="40.37" transform="translate(3.219 176.343)"/><path class="c" d="M133.14,251.437l-8.652,8.63s25.491,30.592,24.366,30.544l55.187,12.927,7.124,29.613,15.809-44.53" transform="translate(-119.422 -34.126)"/><g transform="translate(140.544)"><path class="c" d="M274.2,220.888l17.808,6.786h18.035l17.153-8.791-16.7-9.806H291.8l-.547.361v.013Z" transform="translate(-248.338 -37.416)"/><path class="c" d="M274.958,220.032l-10.465,22.488L360.2,293.05l-49.4-66.231" transform="translate(-249.092 -36.565)"/><line class="c" x1="12.469" y2="29.836" transform="translate(62.158 141.831)"/><path class="c" d="M328.094,221.029l40.885-7.754L323.863,181.4l-46.758,4.9-13.582,17.367,1.113,41.859,17.59,38.742v9.8l-19.594,9.908v23.045" transform="translate(-249.236 -39.566)"/><path class="c" d="M262.706,284.386h12.023l-6.012-4.23-18.48,12.469" transform="translate(-250.199 -31.895)"/><path class="c" d="M250.24,319.859l13.359-3.34L299,328.1,264.49,343.015s-15.141,1.558-14.25,1.558" transform="translate(-250.202 -29.071)"/><path class="c" d="M282.163,276.85s22.266,24.714,22.933,24.714,20.694,69.569,20.694,69.569L263.46,346.1" transform="translate(-249.172 -32.152)"/><line class="c" x1="13.359" y2="3.34" transform="translate(0.038 264.403)"/><path class="c" d="M250.2,218.016l14.288-5.566-14.25-30.615,24.492-49.763,54.327-63.816L278.072,195.082l-3.34-63.011S250.24,96.335,250.2,96.335s78.857-28.08,78.857-28.08l17.813,65.906" transform="translate(-250.202 -48.353)"/><path class="c" d="M321.055,185.434,298.79,129.411h71.374Z" transform="translate(-246.428 -43.603)"/><line class="c" x2="39.391" y2="33.937" transform="translate(0.038)"/><path class="c" d="M289.079,213.9a10.273,10.273,0,0,0,20.547,0,10.161,10.161,0,0,0-1.2-4.823H290.642l-.547.361v.013A10.168,10.168,0,0,0,289.079,213.9Z" transform="translate(-247.182 -37.416)"/><path class="c" d="M302.372,435.6l48.37-38.5c1.473.54-23.922-31.757-23.922-31.757L302.372,435.6,250.2,410.664,292.1,351.4" transform="translate(-250.202 -26.362)"/><line class="c" x1="7.21" y2="38.502" transform="translate(93.33 370.738)"/><line class="c" y1="6.77" x2="21.526" transform="translate(76.618 332.212)"/><path class="c" d="M382.517,214.532l-6.913-1.111-16.563,27.845,9.758,13.124-12.653,15.181" transform="translate(-241.973 -37.078)"/><line class="c" x2="3.694" y2="40.37" transform="translate(133.631 176.343)"/><path class="c" d="M374.651,251.437l8.652,8.63s-25.492,30.592-24.367,30.544l-55.187,12.927-7.124,29.613-15.808-44.53" transform="translate(-247.824 -34.126)"/></g><line class="c" x2="30.802" transform="translate(125.105 205.956)"/></g></g><g transform="translate(714.956 392.049)"><circle class="d" cx="15.429" cy="15.429" r="15.429" transform="translate(0 336.83)"/><circle class="d" cx="15.429" cy="15.429" r="15.429" transform="translate(0 0)"/></g><g transform="translate(585 372.347)"><circle class="e" cx="15.429" cy="15.429" r="15.429" transform="translate(105.412 55.771)"/><circle class="f" cx="15.429" cy="15.429" r="15.429" transform="matrix(0.802, -0.598, 0.598, 0.802, 84.351, 18.439)"/><circle class="g" cx="15.429" cy="15.429" r="15.429" transform="translate(71.187 73.462) rotate(-45)"/><circle class="g" cx="15.429" cy="15.429" r="15.429" transform="translate(10.199 147.055)"/><circle class="h" cx="15.429" cy="15.429" r="15.429" transform="matrix(0.228, -0.974, 0.974, 0.228, 0, 216.462)"/><circle class="g" cx="15.429" cy="15.429" r="15.429" transform="translate(22.95 358.391) rotate(-45)"/><circle class="h" cx="15.429" cy="15.429" r="15.429" transform="translate(111.699 205.595) rotate(-78.319)"/><circle class="i" cx="15.429" cy="15.429" r="15.429" transform="translate(15.682 255.583) rotate(-76.634)"/><circle class="j" cx="15.429" cy="15.429" r="15.429" transform="matrix(0.596, -0.803, 0.803, 0.596, 90.796, 235.547)"/><circle class="k" cx="15.429" cy="15.429" r="15.429" transform="translate(1.446 65.185) rotate(-22.709)"/><circle class="l" cx="15.429" cy="15.429" r="15.429" transform="translate(82.294 313.633) rotate(-47.484)"/><circle class="i" cx="15.429" cy="15.429" r="15.429" transform="matrix(0.215, -0.977, 0.977, 0.215, 52.363, 141.242)"/></g><g transform="translate(727.252 372.347)"><ellipse class="m" cx="15.429" cy="15.429" rx="15.429" ry="15.429" transform="translate(11.895 55.771)"/><ellipse class="n" cx="15.429" cy="15.429" rx="15.429" ry="15.429" transform="translate(45.374 43.181) rotate(-143.304)"/><circle class="g" cx="15.429" cy="15.429" r="15.429" transform="translate(55.158 95.281) rotate(-135)"/><ellipse class="o" cx="15.429" cy="15.429" rx="15.429" ry="15.429" transform="translate(107.108 147.055)"/><ellipse class="p" cx="15.429" cy="15.429" rx="15.429" ry="15.429" transform="matrix(-0.228, -0.974, 0.974, -0.228, 118.123, 223.509)"/><circle class="g" cx="15.429" cy="15.429" r="15.429" transform="translate(103.396 380.211) rotate(-135)"/><ellipse class="q" cx="15.429" cy="15.429" rx="15.429" ry="15.429" transform="translate(6.247 211.842) rotate(-101.681)"/><ellipse class="r" cx="15.429" cy="15.429" rx="15.429" ry="15.429" transform="translate(102.461 262.716) rotate(-103.366)"/><ellipse class="s" cx="15.429" cy="15.429" rx="15.429" ry="15.429" transform="matrix(-0.596, -0.803, 0.803, -0.596, 32.589, 253.935)"/><ellipse class="t" cx="15.429" cy="15.429" rx="15.429" ry="15.429" transform="translate(134.806 93.65) rotate(-157.291)"/><ellipse class="u" cx="15.429" cy="15.429" rx="15.429" ry="15.429" transform="matrix(-0.676, -0.737, 0.737, -0.676, 43.126, 334.486)"/><ellipse class="v" cx="15.429" cy="15.429" rx="15.429" ry="15.429" transform="translate(65.664 147.865) rotate(-102.394)"/></g></g><path class="w" d="M5.2.16A4.61,4.61,0,0,1,2.664-.448,3.362,3.362,0,0,1,1.32-2.3a10.61,10.61,0,0,1-.408-3.24A10.625,10.625,0,0,1,1.32-8.768a3.378,3.378,0,0,1,1.336-1.856,4.535,4.535,0,0,1,2.512-.608,16.247,16.247,0,0,1,3.088.32l.544.1L8.752-9.792a21,21,0,0,0-3.44-.336,3.378,3.378,0,0,0-1.9.456,2.43,2.43,0,0,0-.952,1.44,10.549,10.549,0,0,0-.272,2.7,10.549,10.549,0,0,0,.272,2.7,2.482,2.482,0,0,0,.944,1.448A3.293,3.293,0,0,0,5.3-.928a12.66,12.66,0,0,0,2.288-.224V-4.56H5.744v-1.1H8.8v5.44A19.464,19.464,0,0,1,5.2.16Zm7.552,0a2.174,2.174,0,0,1-1.68-.624A2.549,2.549,0,0,1,10.5-2.256a2.271,2.271,0,0,1,.584-1.712,3.089,3.089,0,0,1,1.864-.688l2.512-.24v-.688q0-1.52-1.312-1.52a29.014,29.014,0,0,0-3.152.208l-.048-.912a15.607,15.607,0,0,1,3.12-.352,2.708,2.708,0,0,1,1.976.616,2.682,2.682,0,0,1,.616,1.96v4.1q.048.592.928.7L17.536.16a2.584,2.584,0,0,1-1.9-.64A6.966,6.966,0,0,1,12.752.16Zm.192-1.008a6.568,6.568,0,0,0,2.144-.368l.368-.128v-2.64l-2.368.224a1.541,1.541,0,0,0-1.04.416,1.473,1.473,0,0,0-.32,1.024Q11.728-.848,12.944-.848ZM19.024-8h1.184v.56A5.9,5.9,0,0,1,21.528-8a4.855,4.855,0,0,1,1.256-.16,2.781,2.781,0,0,1,1.584.384,2.088,2.088,0,0,1,.792,1.224,9.148,9.148,0,0,1,.232,2.328V0H24.208V-4.192a8.5,8.5,0,0,0-.136-1.744,1.471,1.471,0,0,0-.488-.88,1.65,1.65,0,0,0-1.024-.272,4.766,4.766,0,0,0-1.112.136,4.37,4.37,0,0,0-.92.312l-.3.144V0h-1.2ZM30.1.16A2.42,2.42,0,0,1,27.92-.824a5.551,5.551,0,0,1-.656-3.032,5.383,5.383,0,0,1,.792-3.3A3.129,3.129,0,0,1,30.672-8.16a9.278,9.278,0,0,1,1.9.208v-3.536H33.76V0H32.576V-.544A4.955,4.955,0,0,1,30.1.16ZM30.32-.912a4.175,4.175,0,0,0,1.008-.136,5.375,5.375,0,0,0,.928-.312l.32-.144V-6.928a10.146,10.146,0,0,0-1.808-.192A1.989,1.989,0,0,0,29-6.384a4.444,4.444,0,0,0-.5,2.432,4.957,4.957,0,0,0,.408,2.3A1.478,1.478,0,0,0,30.32-.912ZM38.976.16a3.124,3.124,0,0,1-2.584-.952,4.8,4.8,0,0,1-.76-3,5.432,5.432,0,0,1,.816-3.3,3.011,3.011,0,0,1,2.56-1.072,2.985,2.985,0,0,1,2.392.92,4.25,4.25,0,0,1,.792,2.824l-.064.912h-5.28a4.452,4.452,0,0,0,.216,1.552,1.428,1.428,0,0,0,.736.808A3.433,3.433,0,0,0,39.248-.9q.464,0,1.072-.024t1.1-.072l.464-.048L41.92-.1A21.359,21.359,0,0,1,38.976.16Zm2.016-4.624a3.525,3.525,0,0,0-.464-2.072,1.781,1.781,0,0,0-1.52-.616,1.982,1.982,0,0,0-1.632.648,3.273,3.273,0,0,0-.544,2.04ZM44.064-8h1.184v1.088a7.992,7.992,0,0,1,2.928-1.264V-6.96a9.736,9.736,0,0,0-1.352.392,10.04,10.04,0,0,0-1.16.488l-.4.208V0h-1.2Z" transform="translate(1257 563)"/><path class="w" d="M5.2.16A4.61,4.61,0,0,1,2.664-.448,3.362,3.362,0,0,1,1.32-2.3a10.61,10.61,0,0,1-.408-3.24A10.625,10.625,0,0,1,1.32-8.768a3.378,3.378,0,0,1,1.336-1.856,4.535,4.535,0,0,1,2.512-.608,16.247,16.247,0,0,1,3.088.32l.544.1L8.752-9.792a21,21,0,0,0-3.44-.336,3.378,3.378,0,0,0-1.9.456,2.43,2.43,0,0,0-.952,1.44,10.549,10.549,0,0,0-.272,2.7,10.549,10.549,0,0,0,.272,2.7,2.482,2.482,0,0,0,.944,1.448A3.293,3.293,0,0,0,5.3-.928a12.66,12.66,0,0,0,2.288-.224V-4.56H5.744v-1.1H8.8v5.44A19.464,19.464,0,0,1,5.2.16Zm5.9-11.648h1.2V0H11.1ZM16.448.16a2.174,2.174,0,0,1-1.68-.624,2.549,2.549,0,0,1-.576-1.792,2.271,2.271,0,0,1,.584-1.712,3.089,3.089,0,0,1,1.864-.688l2.512-.24v-.688q0-1.52-1.312-1.52a29.014,29.014,0,0,0-3.152.208l-.048-.912a15.607,15.607,0,0,1,3.12-.352,2.708,2.708,0,0,1,1.976.616,2.682,2.682,0,0,1,.616,1.96v4.1q.048.592.928.7L21.232.16a2.584,2.584,0,0,1-1.9-.64A6.966,6.966,0,0,1,16.448.16ZM16.64-.848a6.568,6.568,0,0,0,2.144-.368l.368-.128v-2.64l-2.368.224a1.541,1.541,0,0,0-1.04.416,1.473,1.473,0,0,0-.32,1.024Q15.424-.848,16.64-.848ZM25.232.16A15.216,15.216,0,0,1,22.88-.064l-.48-.08.064-1.04a21.369,21.369,0,0,0,2.752.272,2.629,2.629,0,0,0,1.432-.312,1.111,1.111,0,0,0,.472-1,1.085,1.085,0,0,0-.232-.752,1.3,1.3,0,0,0-.592-.368,7.039,7.039,0,0,0-1.016-.208l-.4-.064A7.212,7.212,0,0,1,23.376-4a1.742,1.742,0,0,1-.816-.632,2.016,2.016,0,0,1-.272-1.128,2.08,2.08,0,0,1,.784-1.84A3.871,3.871,0,0,1,25.3-8.144a13.394,13.394,0,0,1,2.32.208l.448.08-.032,1.024a19.667,19.667,0,0,0-2.7-.256,2.638,2.638,0,0,0-1.384.288.984.984,0,0,0-.456.9.918.918,0,0,0,.224.664A1.29,1.29,0,0,0,24.3-4.9a9.85,9.85,0,0,0,1.016.216l.4.08a7.359,7.359,0,0,1,1.536.408,1.684,1.684,0,0,1,.808.664,2.3,2.3,0,0,1,.264,1.2,2.269,2.269,0,0,1-.76,1.9A3.729,3.729,0,0,1,25.232.16Zm7.44,0A15.216,15.216,0,0,1,30.32-.064l-.48-.08.064-1.04a21.369,21.369,0,0,0,2.752.272,2.629,2.629,0,0,0,1.432-.312,1.111,1.111,0,0,0,.472-1,1.085,1.085,0,0,0-.232-.752,1.3,1.3,0,0,0-.592-.368,7.039,7.039,0,0,0-1.016-.208l-.4-.064A7.212,7.212,0,0,1,30.816-4,1.742,1.742,0,0,1,30-4.632a2.016,2.016,0,0,1-.272-1.128,2.08,2.08,0,0,1,.784-1.84,3.871,3.871,0,0,1,2.224-.544,13.394,13.394,0,0,1,2.32.208l.448.08-.032,1.024a19.667,19.667,0,0,0-2.7-.256,2.638,2.638,0,0,0-1.384.288.984.984,0,0,0-.456.9.918.918,0,0,0,.224.664,1.29,1.29,0,0,0,.584.336,9.85,9.85,0,0,0,1.016.216l.4.08a7.359,7.359,0,0,1,1.536.408,1.684,1.684,0,0,1,.808.664,2.3,2.3,0,0,1,.264,1.2A2.268,2.268,0,0,1,35-.44,3.729,3.729,0,0,1,32.672.16Zm7.92,0a3.124,3.124,0,0,1-2.584-.952,4.8,4.8,0,0,1-.76-3,5.432,5.432,0,0,1,.816-3.3,3.011,3.011,0,0,1,2.56-1.072,2.985,2.985,0,0,1,2.392.92,4.25,4.25,0,0,1,.792,2.824l-.064.912h-5.28a4.452,4.452,0,0,0,.216,1.552,1.428,1.428,0,0,0,.736.808A3.433,3.433,0,0,0,40.864-.9q.464,0,1.072-.024t1.1-.072L43.5-1.04l.032.944A21.359,21.359,0,0,1,40.592.16Zm2.016-4.624a3.525,3.525,0,0,0-.464-2.072,1.781,1.781,0,0,0-1.52-.616,1.982,1.982,0,0,0-1.632.648,3.273,3.273,0,0,0-.544,2.04ZM48.192.16A15.216,15.216,0,0,1,45.84-.064l-.48-.08.064-1.04a21.369,21.369,0,0,0,2.752.272,2.629,2.629,0,0,0,1.432-.312,1.111,1.111,0,0,0,.472-1,1.085,1.085,0,0,0-.232-.752,1.3,1.3,0,0,0-.592-.368,7.039,7.039,0,0,0-1.016-.208l-.4-.064A7.213,7.213,0,0,1,46.336-4a1.742,1.742,0,0,1-.816-.632,2.016,2.016,0,0,1-.272-1.128,2.08,2.08,0,0,1,.784-1.84,3.871,3.871,0,0,1,2.224-.544,13.394,13.394,0,0,1,2.32.208l.448.08-.032,1.024a19.667,19.667,0,0,0-2.7-.256A2.638,2.638,0,0,0,46.9-6.8a.984.984,0,0,0-.456.9.918.918,0,0,0,.224.664,1.29,1.29,0,0,0,.584.336,9.85,9.85,0,0,0,1.016.216l.4.08a7.359,7.359,0,0,1,1.536.408,1.684,1.684,0,0,1,.808.664,2.3,2.3,0,0,1,.264,1.2,2.269,2.269,0,0,1-.76,1.9A3.729,3.729,0,0,1,48.192.16Z" transform="translate(861 367)"/><path class="w" d="M-16.448-9.984v4.32h4.56v1.088h-4.56V0H-17.68V-11.072h6.624v1.088ZM-8.256.16a2.174,2.174,0,0,1-1.68-.624,2.549,2.549,0,0,1-.576-1.792,2.271,2.271,0,0,1,.584-1.712,3.089,3.089,0,0,1,1.864-.688l2.512-.24v-.688q0-1.52-1.312-1.52a29.014,29.014,0,0,0-3.152.208l-.048-.912a15.607,15.607,0,0,1,3.12-.352,2.708,2.708,0,0,1,1.976.616,2.682,2.682,0,0,1,.616,1.96v4.1q.048.592.928.7L-3.472.16a2.584,2.584,0,0,1-1.9-.64A6.966,6.966,0,0,1-8.256.16Zm.192-1.008A6.568,6.568,0,0,0-5.92-1.216l.368-.128v-2.64L-7.92-3.76a1.541,1.541,0,0,0-1.04.416A1.473,1.473,0,0,0-9.28-2.32Q-9.28-.848-8.064-.848ZM.9.16a3.677,3.677,0,0,1-1.9-.424A2.355,2.355,0,0,1-2.016-1.592,7.763,7.763,0,0,1-2.32-4a6.19,6.19,0,0,1,.64-3.04A2.593,2.593,0,0,1,.8-8.176q.48,0,.992.048t1.392.208l-.048.976A18.463,18.463,0,0,0,1.2-7.088a2.85,2.85,0,0,0-1.4.28,1.539,1.539,0,0,0-.688.944,6.922,6.922,0,0,0-.2,1.9A6.7,6.7,0,0,0-.9-2.152a1.55,1.55,0,0,0,.7.944,2.931,2.931,0,0,0,1.464.3l1.888-.144L3.2-.064A17.526,17.526,0,0,1,.9.16ZM4.992-8H6.176V0H4.992Zm0-3.2H6.176v1.392H4.992ZM10.224.16a2.174,2.174,0,0,1-1.68-.624,2.549,2.549,0,0,1-.576-1.792,2.271,2.271,0,0,1,.584-1.712,3.089,3.089,0,0,1,1.864-.688l2.512-.24v-.688q0-1.52-1.312-1.52A29.014,29.014,0,0,0,8.464-6.9l-.048-.912a15.607,15.607,0,0,1,3.12-.352,2.708,2.708,0,0,1,1.976.616,2.682,2.682,0,0,1,.616,1.96v4.1q.048.592.928.7L15.008.16a2.584,2.584,0,0,1-1.9-.64A6.966,6.966,0,0,1,10.224.16Zm.192-1.008a6.568,6.568,0,0,0,2.144-.368l.368-.128v-2.64L10.56-3.76a1.541,1.541,0,0,0-1.04.416A1.473,1.473,0,0,0,9.2-2.32Q9.2-.848,10.416-.848Zm6.176-10.64h1.2V0h-1.2Zm-54.36,31.5V23.84h4.544v1.072h-4.544v4h5.5V30H-39V18.928h6.736v1.088ZM-28.648,26l-2.512-4h1.312l1.952,3.136L-25.944,22h1.312l-2.544,3.968L-24.648,30H-25.96L-27.9,26.88-29.848,30H-31.16Zm5.52-4h1.184v.576a5.86,5.86,0,0,1,1.208-.552,4.1,4.1,0,0,1,1.24-.184,2.448,2.448,0,0,1,2.168.984,5.61,5.61,0,0,1,.68,3.128A6.971,6.971,0,0,1-17,28.392a2.479,2.479,0,0,1-1.12,1.344,4.278,4.278,0,0,1-2.064.424,8.56,8.56,0,0,1-1.744-.176v3.568h-1.2Zm2.96,7.12a2.036,2.036,0,0,0,1.776-.736A4.171,4.171,0,0,0-17.864,26a4.617,4.617,0,0,0-.456-2.36,1.522,1.522,0,0,0-1.384-.728,3.678,3.678,0,0,0-1,.152,6.455,6.455,0,0,0-.92.328l-.3.16v5.392A13.239,13.239,0,0,0-20.168,29.12ZM-14.7,22h1.184v1.088a7.992,7.992,0,0,1,2.928-1.264V23.04a9.735,9.735,0,0,0-1.352.392,10.04,10.04,0,0,0-1.16.488l-.4.208V30h-1.2Zm8.368,8.16a3.124,3.124,0,0,1-2.584-.952,4.8,4.8,0,0,1-.76-3,5.432,5.432,0,0,1,.816-3.3A3.011,3.011,0,0,1-6.3,21.84a2.985,2.985,0,0,1,2.392.92,4.25,4.25,0,0,1,.792,2.824l-.064.912h-5.28a4.452,4.452,0,0,0,.216,1.552,1.428,1.428,0,0,0,.736.808,3.433,3.433,0,0,0,1.448.248q.464,0,1.072-.024t1.1-.072l.464-.048.032.944A21.359,21.359,0,0,1-6.328,30.16Zm2.016-4.624a3.525,3.525,0,0,0-.464-2.072,1.781,1.781,0,0,0-1.52-.616,1.982,1.982,0,0,0-1.632.648,3.273,3.273,0,0,0-.544,2.04ZM1.272,30.16a15.216,15.216,0,0,1-2.352-.224l-.48-.08.064-1.04a21.369,21.369,0,0,0,2.752.272,2.629,2.629,0,0,0,1.432-.312,1.111,1.111,0,0,0,.472-1,1.085,1.085,0,0,0-.232-.752,1.3,1.3,0,0,0-.592-.368,7.039,7.039,0,0,0-1.016-.208l-.4-.064A7.213,7.213,0,0,1-.584,26a1.742,1.742,0,0,1-.816-.632,2.016,2.016,0,0,1-.272-1.128A2.08,2.08,0,0,1-.888,22.4a3.871,3.871,0,0,1,2.224-.544,13.394,13.394,0,0,1,2.32.208l.448.08-.032,1.024a19.667,19.667,0,0,0-2.7-.256A2.638,2.638,0,0,0-.016,23.2a.984.984,0,0,0-.456.9.918.918,0,0,0,.224.664,1.29,1.29,0,0,0,.584.336,9.85,9.85,0,0,0,1.016.216l.4.08a7.359,7.359,0,0,1,1.536.408,1.684,1.684,0,0,1,.808.664,2.3,2.3,0,0,1,.264,1.2,2.268,2.268,0,0,1-.76,1.9A3.729,3.729,0,0,1,1.272,30.16Zm7.44,0a15.216,15.216,0,0,1-2.352-.224l-.48-.08.064-1.04a21.369,21.369,0,0,0,2.752.272,2.629,2.629,0,0,0,1.432-.312,1.111,1.111,0,0,0,.472-1,1.085,1.085,0,0,0-.232-.752,1.3,1.3,0,0,0-.592-.368,7.039,7.039,0,0,0-1.016-.208l-.4-.064A7.213,7.213,0,0,1,6.856,26a1.742,1.742,0,0,1-.816-.632,2.016,2.016,0,0,1-.272-1.128,2.08,2.08,0,0,1,.784-1.84,3.871,3.871,0,0,1,2.224-.544,13.394,13.394,0,0,1,2.32.208l.448.08-.032,1.024a19.667,19.667,0,0,0-2.7-.256,2.638,2.638,0,0,0-1.384.288.984.984,0,0,0-.456.9.918.918,0,0,0,.224.664,1.29,1.29,0,0,0,.584.336,9.85,9.85,0,0,0,1.016.216l.4.08a7.359,7.359,0,0,1,1.536.408,1.684,1.684,0,0,1,.808.664,2.3,2.3,0,0,1,.264,1.2,2.268,2.268,0,0,1-.76,1.9A3.729,3.729,0,0,1,8.712,30.16ZM13.64,22h1.184v8H13.64Zm0-3.2h1.184v1.392H13.64ZM20.1,30.16a4.143,4.143,0,0,1-2.032-.424A2.362,2.362,0,0,1,17,28.416a7.2,7.2,0,0,1-.32-2.368,7.277,7.277,0,0,1,.336-2.44A2.429,2.429,0,0,1,18.1,22.264a4.065,4.065,0,0,1,2-.424,3.994,3.994,0,0,1,2.008.432,2.477,2.477,0,0,1,1.08,1.344,7.2,7.2,0,0,1,.336,2.432,7.2,7.2,0,0,1-.32,2.368,2.371,2.371,0,0,1-1.064,1.32A4.134,4.134,0,0,1,20.1,30.16Zm.016-1.04a2.512,2.512,0,0,0,1.344-.3,1.573,1.573,0,0,0,.648-.944,7.053,7.053,0,0,0,.184-1.832,7.374,7.374,0,0,0-.192-1.92,1.58,1.58,0,0,0-.656-.96,2.531,2.531,0,0,0-1.328-.288,2.576,2.576,0,0,0-1.336.288,1.6,1.6,0,0,0-.672.96,7.091,7.091,0,0,0-.2,1.92,7.069,7.069,0,0,0,.184,1.824,1.565,1.565,0,0,0,.656.952A2.593,2.593,0,0,0,20.12,29.12ZM25.48,22h1.184v.56a5.9,5.9,0,0,1,1.32-.56,4.855,4.855,0,0,1,1.256-.16,2.781,2.781,0,0,1,1.584.384,2.088,2.088,0,0,1,.792,1.224,9.148,9.148,0,0,1,.232,2.328V30H30.664V25.808a8.5,8.5,0,0,0-.136-1.744,1.471,1.471,0,0,0-.488-.88,1.65,1.65,0,0,0-1.024-.272,4.766,4.766,0,0,0-1.112.136,4.37,4.37,0,0,0-.92.312l-.3.144V30h-1.2Zm11.1,8.16a15.216,15.216,0,0,1-2.352-.224l-.48-.08.064-1.04a21.369,21.369,0,0,0,2.752.272A2.629,2.629,0,0,0,38,28.776a1.111,1.111,0,0,0,.472-1,1.085,1.085,0,0,0-.232-.752,1.3,1.3,0,0,0-.592-.368,7.039,7.039,0,0,0-1.016-.208l-.4-.064a7.213,7.213,0,0,1-1.5-.384,1.742,1.742,0,0,1-.816-.632,2.016,2.016,0,0,1-.272-1.128,2.08,2.08,0,0,1,.784-1.84,3.871,3.871,0,0,1,2.224-.544,13.394,13.394,0,0,1,2.32.208l.448.08-.032,1.024a19.667,19.667,0,0,0-2.7-.256A2.638,2.638,0,0,0,35.3,23.2a.984.984,0,0,0-.456.9.918.918,0,0,0,.224.664,1.29,1.29,0,0,0,.584.336,9.85,9.85,0,0,0,1.016.216l.4.08A7.359,7.359,0,0,1,38.6,25.8a1.684,1.684,0,0,1,.808.664,2.3,2.3,0,0,1,.264,1.2,2.268,2.268,0,0,1-.76,1.9A3.729,3.729,0,0,1,36.584,30.16Z" transform="translate(899 523)"/><path class="w" d="M7.136-2.848H2.4L1.6,0H.384l3.04-11.072H6.112L9.152,0H7.936Zm-4.464-1.1H6.864l-1.68-6.064H4.352Zm10.8,7.712a4.49,4.49,0,0,1-2.536-.536,2.049,2.049,0,0,1-.744-1.784,2.481,2.481,0,0,1,.12-.84,1.592,1.592,0,0,1,.376-.584,8.809,8.809,0,0,1,.768-.656.868.868,0,0,1-.336-.432,1.663,1.663,0,0,1-.112-.608,1.273,1.273,0,0,1,.1-.456,8.151,8.151,0,0,1,.448-.872,2.342,2.342,0,0,1-1.264-2.4A2.656,2.656,0,0,1,11.04-7.48a3.3,3.3,0,0,1,2.272-.68,7.273,7.273,0,0,1,1.632.208l2.368-.064v1.024l-1.52-.032a1.644,1.644,0,0,1,.4.664,3.28,3.28,0,0,1,.128,1,2.5,2.5,0,0,1-.736,2.032,3.616,3.616,0,0,1-2.32.608,4.282,4.282,0,0,1-.816-.064q-.128.32-.208.56a1.347,1.347,0,0,0-.08.416.522.522,0,0,0,.328.544,2.987,2.987,0,0,0,1.016.128h.624a7.346,7.346,0,0,1,1.7.16,1.681,1.681,0,0,1,1,.648,2.4,2.4,0,0,1,.352,1.416A2.361,2.361,0,0,1,16.32,3.12,4.881,4.881,0,0,1,13.472,3.76Zm-.16-7.44a1.973,1.973,0,0,0,1.392-.4,1.836,1.836,0,0,0,.416-1.36A1.81,1.81,0,0,0,14.7-6.784a1.946,1.946,0,0,0-1.376-.4,2.006,2.006,0,0,0-1.416.408,1.817,1.817,0,0,0-.424,1.352,1.788,1.788,0,0,0,.424,1.344A2.005,2.005,0,0,0,13.312-3.68Zm.272,6.432a3.475,3.475,0,0,0,1.856-.36,1.392,1.392,0,0,0,.528-1.24,1.4,1.4,0,0,0-.176-.776A.922.922,0,0,0,15.2.016,5.682,5.682,0,0,0,14-.08L12.272-.16a2.829,2.829,0,0,0-.712.672,1.411,1.411,0,0,0-.184.768,1.274,1.274,0,0,0,.488,1.152A3.331,3.331,0,0,0,13.584,2.752ZM21.76.16a3.124,3.124,0,0,1-2.584-.952,4.8,4.8,0,0,1-.76-3,5.432,5.432,0,0,1,.816-3.3,3.011,3.011,0,0,1,2.56-1.072,2.985,2.985,0,0,1,2.392.92,4.25,4.25,0,0,1,.792,2.824l-.064.912h-5.28a4.452,4.452,0,0,0,.216,1.552,1.428,1.428,0,0,0,.736.808A3.433,3.433,0,0,0,22.032-.9Q22.5-.9,23.1-.92t1.1-.072l.464-.048L24.7-.1A21.359,21.359,0,0,1,21.76.16Zm2.016-4.624a3.525,3.525,0,0,0-.464-2.072,1.781,1.781,0,0,0-1.52-.616A1.982,1.982,0,0,0,20.16-6.5a3.273,3.273,0,0,0-.544,2.04Z" transform="translate(1284 348)"/><path class="x" d="M470.5,339.354,445.013,363H402.749" transform="translate(831 23)"/><path class="x" d="M470.5,339.354,445.013,363H402.749" transform="translate(820 238)"/><path class="x" d="M402.749,339.354,428.236,363H470.5" transform="translate(496 223)"/><path class="x" d="M402.749,339.354,428.236,363H470.5" transform="translate(480 40)"/></g></svg>